# xmcd CD database file
#
# Track frame offsets:
#	150
#	13952
#	28448
#	42257
#	55955
#	70329
#	84567
#	96435
#	110260
#	122892
#	135226
#	149510
#	163297
#	177329
#	192323
#	205848
#
# Disc length: 2920 seconds
#
# Revision: 1
# Processed by: cddbd v1.5.1PL0 Copyright (c) Steve Scherf et al.
# Submitted via: CDex 1.51
#
DISCID=f30b6610
DTITLE=Thelonius Monk - Ruby My Dear
DYEAR=1900
DGENRE=Jazz
TTITLE0=Off Minor
TTITLE1=Round Midnight
TTITLE2=Thelonius
TTITLE3=Well, You Needn't
TTITLE4=Ruby My Dear
TTITLE5=Epistrophy
TTITLE6=Evidence
TTITLE7=Nice Work
TTITLE8=Mysterioso
TTITLE9=Who Knows
TTITLE10=Monk's Mood
TTITLE11=Suburban Eyes
TTITLE12=Evance
TTITLE13=Ask Me Now
TTITLE14=Criss Cross
TTITLE15=Straight No Chaser
EXTD=
EXTT0=
EXTT1=
EXTT2=
EXTT3=
EXTT4=
EXTT5=
EXTT6=
EXTT7=
EXTT8=
EXTT9=
EXTT10=
EXTT11=
EXTT12=
EXTT13=
EXTT14=
EXTT15=
PLAYORDER=
